<?xml version="1.0" standalone="no"?>
<!DOCTYPE svg PUBLIC "-//W3C//DTD SVG 20010904//EN"
 "http://www.w3.org/TR/2001/REC-SVG-20010904/DTD/svg10.dtd">
<svg version="1.0" xmlns="http://www.w3.org/2000/svg"
 width="128.000000pt" height="128.000000pt" viewBox="0 0 128.000000 128.000000"
 preserveAspectRatio="xMidYMid meet">

<g transform="translate(0.000000,128.000000) scale(0.100000,-0.100000)"
fill="#000000" stroke="none">
<path d="M0 1260 c0 -20 7 -20 640 -20 633 0 640 0 640 20 0 20 -7 20 -640 20
-633 0 -640 0 -640 -20z"/>
<path d="M495 1039 c-19 -17 -49 -61 -67 -100 -23 -50 -41 -74 -64 -87 -18 -9
-50 -38 -72 -65 -37 -42 -40 -50 -31 -76 10 -27 44 -51 74 -51 10 0 13 -17 12
-74 -2 -70 0 -77 32 -123 26 -36 36 -61 39 -100 4 -49 3 -53 -17 -53 -17 0
-22 -5 -19 -23 2 -18 9 -22 33 -20 34 3 64 33 72 75 9 45 33 35 33 -14 0 -34
-5 -47 -27 -63 -47 -38 -3 -61 56 -30 27 13 71 85 71 113 0 20 50 14 83 -10
l30 -22 -42 -18 c-63 -27 -49 -43 35 -41 88 2 180 20 222 44 18 11 41 19 51
19 51 0 70 87 26 116 -14 9 -25 22 -25 29 0 7 -9 43 -21 80 -51 166 -204 233
-411 180 -20 -5 -28 -3 -28 6 0 8 -3 24 -6 36 -5 18 1 25 45 43 53 23 131 98
131 126 0 27 -90 13 -149 -24 l-49 -30 24 51 c27 60 33 137 9 137 -8 0 -30
-14 -50 -31z"/>
<path d="M0 25 l0 -25 640 0 640 0 0 25 0 25 -640 0 -640 0 0 -25z"/>
</g>
</svg>
